<?xml version="1.0" encoding="utf-8"?>
<!-- Generator: Adobe Illustrator 23.0.1, SVG Export Plug-In . SVG Version: 6.00 Build 0)  -->
<!DOCTYPE svg PUBLIC "-//W3C//DTD SVG 1.1//EN" "http://www.w3.org/Graphics/SVG/1.1/DTD/svg11.dtd" [
	<!ENTITY ns_extend "http://ns.adobe.com/Extensibility/1.0/">
	<!ENTITY ns_ai "http://ns.adobe.com/AdobeIllustrator/10.0/">
	<!ENTITY ns_graphs "http://ns.adobe.com/Graphs/1.0/">
	<!ENTITY ns_vars "http://ns.adobe.com/Variables/1.0/">
	<!ENTITY ns_imrep "http://ns.adobe.com/ImageReplacement/1.0/">
	<!ENTITY ns_sfw "http://ns.adobe.com/SaveForWeb/1.0/">
	<!ENTITY ns_custom "http://ns.adobe.com/GenericCustomNamespace/1.0/">
	<!ENTITY ns_adobe_xpath "http://ns.adobe.com/XPath/1.0/">
]>
<svg version="1.1" id="Livello_1" xmlns:x="&ns_extend;" xmlns:i="&ns_ai;" xmlns:graph="&ns_graphs;"
	 xmlns="http://www.w3.org/2000/svg" xmlns:xlink="http://www.w3.org/1999/xlink" x="0px" y="0px" viewBox="0 0 6080.1 1115.7"
	 style="enable-background:new 0 0 6080.1 1115.7;" xml:space="preserve">
<style type="text/css">
	.st0{fill-rule:evenodd;clip-rule:evenodd;fill:#5F6368;}
	.st1{fill:#63666A;}
	.st2{fill:#34A853;}
	.st3{fill:#FBBC04;}
	.st4{fill:#4285F4;}
	.st5{fill:#1A73E8;}
	.st6{fill:#EA4335;}
</style>
<metadata>
	<sfw  xmlns="&ns_sfw;">
		<slices></slices>
		<sliceSourceBounds  bottomLeftOrigin="true" height="1115.7" width="6080.1" x="7.1" y="-0.1"></sliceSourceBounds>
	</sfw>
</metadata>
<g>
	<path class="st0" d="M3595.6,667.1l207-86c-11.4-28.9-45.6-49.1-85.9-49.1C3664.9,532,3593,577.6,3595.6,667.1 M3838.5,750.4
		l78.9,52.6c-25.4,37.7-86.8,102.6-192.9,102.6c-131.5,0-226.5-101.8-226.5-231.5c0-137.8,95.9-231.6,215.1-231.6
		c120.2,0,178.9,95.6,198.2,147.4l10.5,26.3l-309.6,128c23.7,46.5,60.5,70.2,112.3,70.2C3776.2,814.4,3812.2,788.9,3838.5,750.4
		 M3336.8,891.6h101.7V211h-101.7V891.6z M3170.8,674.9c0-81.5-54.4-141.2-123.7-141.2c-70.1,0-128.9,59.7-128.9,141.2
		c0,80.7,58.8,139.5,128.9,139.5C3116.4,814.4,3170.8,755.6,3170.8,674.9z M3260.2,456.6v415.7c0,171-100.8,241.2-220.1,241.2
		c-112.3,0-179.8-75.4-205.2-136.8l88.6-36.9c15.8,37.7,54.4,82.4,116.7,82.4c76.3,0,123.7-47.3,123.7-135.9V853h-3.5
		c-22.8,28.1-66.7,52.6-121.9,52.6c-115.8,0-221.9-100.9-221.9-230.7c0-130.7,106.1-232.4,221.9-232.4c55.3,0,99.1,24.5,121.9,51.7
		h3.5v-37.7C3163.8,456.6,3260.2,456.6,3260.2,456.6z M2150.1,674.1c0-83.4-59.4-140.3-128.3-140.3c-68.9,0-128.3,57-128.3,140.3
		c0,82.4,59.4,140.3,128.3,140.3C2090.6,814.4,2150.1,756.5,2150.1,674.1 M2249.9,674.1c0,133.3-102.5,231.5-228.2,231.5
		s-228.2-98.2-228.2-231.5c0-134.2,102.5-231.5,228.2-231.5C2147.5,442.6,2249.9,539.9,2249.9,674.1 M2661.6,674.1
		c0-83.4-59.4-140.3-128.3-140.3c-68.9,0-128.3,57-128.3,140.3c0,82.4,59.4,140.3,128.3,140.3S2661.6,756.5,2661.6,674.1
		 M2761.5,674.1c0,133.3-102.5,231.5-228.2,231.5s-228.2-98.2-228.2-231.5c0-134.2,102.5-231.5,228.2-231.5
		C2659,442.6,2761.5,539.9,2761.5,674.1 M1402.6,905.6c-198.2,0-364.8-161.4-364.8-359.6s166.7-359.6,364.9-359.6
		c109.7,0,187.7,43,246.5,99.2l-69.3,69.3c-42.1-39.5-99.1-70.2-177.2-70.2c-144.7,0-257.9,116.7-257.9,261.4
		s113.2,261.3,257.9,261.3c93.8,0,147.3-37.7,181.6-71.9c28.1-28,46.5-68.4,53.5-123.6h-235.1v-98.2h330.6
		c3.6,17.5,5.3,38.6,5.3,61.4c0,73.7-20.2,164.9-85,229.8C1590.3,870.6,1509.6,905.6,1402.6,905.6"/>
	<g id="flowRoot2998" transform="matrix(4.2191115,0,0,4.2191115,-384.028,-1510.8399)">
		<path id="path3911" class="st1" d="M1077.5,567.9V424.7h18.4l49.8,87.2h0.8l49.8-87.2h18.4v143.2h-18.4v-85l0.8-24h-0.8
			l-44.8,78.6h-10.8l-44.8-78.6h-0.8l0.8,24v85H1077.5z"/>
		<path id="path3913" class="st1" d="M1271.3,571.1c-10.4,0-19.1-3-26.1-9s-10.5-13.9-10.5-23.8c0-10.7,4.1-19,12.4-25.1
			c8.3-6.1,18.5-9.1,30.6-9.1c10.8,0,19.7,2,26.6,6v-2.8c0-7.2-2.5-13-7.4-17.3s-11-6.5-18.2-6.5c-5.3,0-10.2,1.3-14.5,3.8
			s-7.3,6-8.9,10.4l-16.8-7.2c2.3-5.9,6.7-11.3,13.4-16.3c6.7-5,15.5-7.5,26.4-7.5c12.5,0,22.9,3.7,31.2,11
			c8.3,7.3,12.4,17.7,12.4,31v59.2h-17.6v-13.6h-0.8C1296.2,565.5,1285.4,571.1,1271.3,571.1z M1274.3,554.3
			c7.6,0,14.5-2.8,20.7-8.5s9.3-12.4,9.3-20.1c-5.2-4.3-13-6.4-23.4-6.4c-8.9,0-15.7,1.9-20.2,5.8c-4.5,3.9-6.8,8.4-6.8,13.6
			c0,4.8,2.1,8.6,6.2,11.4C1264.2,552.9,1269,554.3,1274.3,554.3z"/>
		<path id="path3915" class="st1" d="M1393.6,571.1c-7.5,0-14.2-1.6-20.1-4.8s-10.4-7.2-13.3-12h-0.8l0.8,13.6v43.2h-18.4V469.9
			h17.6v13.6h0.8c2.9-4.8,7.4-8.8,13.3-12s12.6-4.8,20.1-4.8c12.7,0,23.6,5,32.8,15c9.2,10,13.8,22.4,13.8,37.2
			c0,14.8-4.6,27.2-13.8,37.2C1417.2,566.1,1406.3,571.1,1393.6,571.1z M1390.6,554.3c8.5,0,15.9-3.2,22-9.7s9.2-15,9.2-25.7
			s-3.1-19.2-9.2-25.7s-13.5-9.7-22-9.7c-8.7,0-16,3.2-22.1,9.6s-9.1,15-9.1,25.8c0,10.8,3,19.4,9.1,25.8
			C1374.6,551.1,1382,554.3,1390.6,554.3z"/>
		<path id="path3917" class="st1" d="M1493.5,571.1c-10.9,0-20-2.7-27.1-8s-12.4-12-15.7-20l16.4-6.8c5.2,12.3,14.1,18.4,26.6,18.4
			c5.7,0,10.4-1.3,14.1-3.8s5.5-5.9,5.5-10c0-6.4-4.5-10.7-13.4-13l-19.8-4.8c-6.3-1.6-12.2-4.6-17.8-9.1
			c-5.6-4.5-8.4-10.5-8.4-18.1c0-8.7,3.8-15.7,11.5-21.1s16.8-8.1,27.3-8.1c8.7,0,16.4,2,23.2,5.9c6.8,3.9,11.7,9.6,14.6,16.9
			l-16,6.6c-3.6-8.7-11.1-13-22.4-13c-5.5,0-10.1,1.1-13.8,3.4c-3.7,2.3-5.6,5.3-5.6,9.2c0,5.6,4.3,9.4,13,11.4l19.4,4.6
			c9.2,2.1,16,5.8,20.4,11s6.6,11.1,6.6,17.6c0,8.8-3.6,16.1-10.8,22C1514.1,568.1,1504.8,571.1,1493.5,571.1z"/>
	</g>
	<g id="g842" transform="translate(-583.2646,52.894413)">
		<path id="path835" class="st2" d="M797.6,773.8c34.5,43.1,69.5,97.1,87.9,129.8c22.4,42.5,31.6,71.2,48.3,122.4
			c9.8,28.2,19,36.8,38.5,36.8c21.3,0,31-14.4,38.5-36.8c15.5-48.3,27.6-85,46.5-120.1c37.3-67.2,84.5-127,130.4-184.4
			c12.6-16.1,93.1-110.9,129.3-186.1c0,0,44.2-82.2,44.2-197.1c0-107.4-43.7-182.1-43.7-182.1l-126.4,33.9l-77,202.2l-19,27.6
			l-4,5.2l-5.2,6.3l-8.6,10.3l-12.6,12.6l-68.4,55.7l-170.6,98.8L797.6,773.8z"/>
		<path id="path833" class="st3" d="M621.2,521.6C663.1,617,743,700.3,797.6,773.8l289-342.4c0,0-40.8,53.4-114.3,53.4
			c-82.2,0-148.8-65.5-148.8-148.2c0-56.9,33.9-95.9,33.9-95.9L661.4,293L621.2,521.6z"/>
		<path id="path831" class="st4" d="M1090-35.1c95.9,31,178.1,95.9,227.5,191.9L1086.5,432c0,0,33.9-39.6,33.9-95.9
			c0-84.5-71.2-148.2-148.2-148.2c-73,0-114.9,52.9-114.9,52.9V67.2L1090-35.1z"/>
		<path id="path829" class="st5" d="M674,86.1c57.4-68.4,158-139,297-139c67.2,0,118.3,17.8,118.3,17.8L857.3,240.7H693L674,86.1z"
			/>
		<path id="path827" class="st6" d="M621.2,521.6c0,0-37.9-75.3-37.9-183.8c0-102.8,40.2-192.5,91.3-251.1l183.3,154.5L621.2,521.6z
			"/>
	</g>
</g>
</svg>
